<!DOCTYPE svg PUBLIC "-//W3C//DTD SVG 1.1//EN" "http://www.w3.org/Graphics/SVG/1.1/DTD/svg11.dtd">

<!-- Uploaded to: SVG Repo, www.svgrepo.com, Transformed by: SVG Repo Mixer Tools -->
<svg fill="#008000" height="800px" width="800px" version="1.1" id="Capa_1" xmlns="http://www.w3.org/2000/svg" xmlns:xlink="http://www.w3.org/1999/xlink" viewBox="0 0 41.274 41.274" xml:space="preserve" style="--darkreader-inline-fill:#007a00; --darkreader-inline-stroke:#61ff61;" stroke="#5CA904" data-darkreader-inline-fill="" data-darkreader-inline-stroke="">

<g id="SVGRepo_bgCarrier" stroke-width="0"/>

<g id="SVGRepo_tracerCarrier" stroke-linecap="round" stroke-linejoin="round"/>

<g id="SVGRepo_iconCarrier"> <g> <g id="b47_leaf"> <path d="M0,38.441l1.456,0.442l0.148-0.15c-0.138-0.324,7.082-8.532,7.054-8.888c-0.292-0.019-1.226-0.525-1.226-0.525 s-0.117,0.139-0.172,0.21C4.581,32.677,0,38.441,0,38.441z"/> <path d="M40.7,14.569c-0.582-0.822-1.553-1.282-2.573-1.319c-0.139,0.431-0.303,0.865-0.521,1.289 c-0.502,0.969-1.15,1.765-1.864,2.388c0.193,1.338-0.072,2.926-0.854,4.445c-0.504,0.977-1.162,1.779-1.881,2.406 c-0.237,1.295-0.951,2.682-2.1,3.859c-1.164,1.2-2.558,1.954-3.865,2.211c-0.577,0.704-1.311,1.359-2.208,1.879 c-2.224,1.289-4.668,1.426-6.208,0.52c-0.32,0.254-0.666,0.49-1.037,0.705c-1.551,0.9-3.203,1.227-4.59,1.043 c0.736,1.158,2.194,1.855,3.99,1.855c0.848,0,1.71-0.155,2.558-0.456c0.205-0.075,0.398-0.155,0.588-0.236 c0.783,0.503,1.798,0.776,2.912,0.776c0.845,0,1.701-0.151,2.546-0.455c0.755-0.269,1.457-0.656,2.093-1.154 c1.221-0.078,2.498-0.551,3.627-1.35c1.106-0.785,1.966-1.815,2.45-2.92c0.716-0.464,1.345-1.04,1.872-1.725 c0.831-1.074,1.353-2.301,1.491-3.498c0.656-0.445,1.234-0.99,1.726-1.627c1.065-1.377,1.616-3.019,1.513-4.475 C41.426,17.536,41.584,15.816,40.7,14.569z"/> <polygon points="18.213,25.134 18.066,25.251 18.738,25.454 "/> <path d="M36.485,3.349c-1.035-1.01-2.67-1.062-3.923-0.221c-1.517-1.069-4.089-0.999-6.43,0.357 c-0.37,0.216-0.715,0.454-1.036,0.709c-1.538-0.91-3.981-0.774-6.204,0.517c-0.898,0.521-1.633,1.173-2.212,1.877 c-1.306,0.256-2.697,1.013-3.864,2.211c-1.149,1.183-1.863,2.565-2.097,3.86c-0.719,0.628-1.377,1.43-1.881,2.408 c-0.783,1.519-1.049,3.107-0.854,4.446c-0.713,0.621-1.363,1.419-1.862,2.384c-1.529,2.968-1.113,6.23,0.936,7.283 c0.115,0.062,0.246,0.095,0.375,0.138c1.847-2.373,3.921-4.551,6.032-6.676l-0.205,0.1l-1.49-4.533l2.398,3.729 c0.244-0.241,0.485-0.487,0.73-0.727c1.235-1.233,2.49-2.44,3.762-3.633l-1.307-3.98l2.09,3.25 c1.576-1.462,3.178-2.891,4.803-4.297l-0.938-2.853l1.517,2.358c2.281-1.958,4.593-3.879,6.966-5.72l0.104,0.123 c-2.226,1.941-4.379,3.954-6.506,5.994l2.452,1.489l-3.021-0.908l0.027-0.065c-0.394,0.381-0.789,0.749-1.18,1.128 c-1.152,1.113-2.283,2.244-3.408,3.382l3.331,2.02l-4.113-1.233c-1.233,1.263-2.455,2.541-3.65,3.836 c-0.311,0.335-0.6,0.688-0.905,1.028l3.292,2l0.525,0.32l-0.672-0.203l-3.895-1.168l0.089-0.197 c-1.934,2.189-3.812,4.416-5.713,6.619c0.036,0.087,0.06,0.184,0.109,0.268c0.533,0.922,1.534,1.453,2.729,1.609 c1.386,0.186,3.039-0.141,4.595-1.042c0.366-0.214,0.712-0.452,1.035-0.706c1.539,0.906,3.982,0.77,6.206-0.518 c0.896-0.522,1.628-1.175,2.21-1.876c1.304-0.261,2.697-1.016,3.863-2.214c1.151-1.18,1.861-2.565,2.099-3.859 c0.718-0.627,1.376-1.432,1.88-2.408c0.782-1.517,1.049-3.105,0.854-4.443c0.713-0.626,1.361-1.42,1.862-2.387 c0.221-0.428,0.387-0.859,0.525-1.291C37,10.153,37.022,8.683,36.61,7.531C37.62,6.227,37.597,4.431,36.485,3.349z"/> </g> <g id="Capa_1_234_"> </g> </g> </g>

</svg>